<?xml version="1.0" encoding="UTF-8"?>
<svg width="24px" height="24px" viewBox="0 0 24 24" version="1.1" xmlns="http://www.w3.org/2000/svg" xmlns:xlink="http://www.w3.org/1999/xlink">
    <title>Delete_icons</title>
    <g id="Page-1" stroke="none" stroke-width="1" fill="none" fill-rule="evenodd">
        <g id="iPhone-12-Pro" transform="translate(-183.000000, -437.000000)">
            <g id="Delete_active" transform="translate(183.000000, 437.000000)">
                <rect id="Bounding" x="0" y="0" width="24" height="24"></rect>
                <g id="trash-can-outline" transform="translate(4.000000, 3.000000)" fill="#FF5252" fill-rule="nonzero">
                    <path d="M5,0 L5,1 L0,1 L0,3 L1,3 L1,16 C1,17.1045695 1.8954305,18 3,18 L13,18 C14.1045695,18 15,17.1045695 15,16 L15,3 L16,3 L16,1 L11,1 L11,0 L5,0 M3,3 L13,3 L13,16 L3,16 L3,3 M5,5 L5,14 L7,14 L7,5 L5,5 M9,5 L9,14 L11,14 L11,5 L9,5 Z" id="Shape"></path>
                </g>
            </g>
        </g>
    </g>
</svg>